<mxfile host="65bd71144e">
    <diagram id="CdygmmqFNCG24eu4JrQR" name="第 1 页">
        <mxGraphModel dx="610" dy="407" grid="1" gridSize="10" guides="1" tooltips="1" connect="1" arrows="1" fold="1" page="1" pageScale="1" pageWidth="827" pageHeight="1169" math="0" shadow="0">
            <root>
                <mxCell id="0"/>
                <mxCell id="1" parent="0"/>
                <mxCell id="72" value="&lt;font style=&quot;font-size: 19px;&quot; face=&quot;Times New Roman&quot;&gt;(a) &lt;/font&gt;&lt;font face=&quot;SimSun&quot; style=&quot;font-size: 19px;&quot;&gt;情况&lt;/font&gt;&lt;font face=&quot;Times New Roman&quot; style=&quot;font-size: 19px;&quot;&gt;1, s&lt;/font&gt;&lt;font face=&quot;SimSun&quot; style=&quot;font-size: 19px;&quot;&gt;为红色&lt;/font&gt;" style="rounded=0;whiteSpace=wrap;html=1;container=1;verticalAlign=bottom;strokeColor=none;strokeWidth=1;align=left;spacingLeft=10;fillColor=none;" parent="1" vertex="1">
                    <mxGeometry x="40" y="40" width="650" height="200" as="geometry">
                        <mxRectangle x="177" y="190" width="50" height="40" as="alternateBounds"/>
                    </mxGeometry>
                </mxCell>
                <mxCell id="77" value="" style="group" parent="72" vertex="1" connectable="0">
                    <mxGeometry x="40" y="20" width="260" height="140" as="geometry"/>
                </mxCell>
                <mxCell id="2" value="g" style="ellipse;whiteSpace=wrap;html=1;fontFamily=Times New Roman;fontSize=19;fillColor=#808080;fontColor=#FFFFFF;strokeWidth=0.5;fontStyle=0;" parent="77" vertex="1">
                    <mxGeometry x="30" width="40" height="40" as="geometry"/>
                </mxCell>
                <mxCell id="3" value="p" style="ellipse;whiteSpace=wrap;html=1;fontFamily=Times New Roman;fontSize=19;strokeWidth=0.5;fillStyle=auto;fillColor=#DDD;fontStyle=0;" parent="77" vertex="1">
                    <mxGeometry y="50" width="40" height="40" as="geometry"/>
                </mxCell>
                <mxCell id="4" style="edgeStyle=none;html=1;endArrow=none;endFill=0;" parent="77" source="2" target="3" edge="1">
                    <mxGeometry relative="1" as="geometry"/>
                </mxCell>
                <mxCell id="5" value="s" style="ellipse;whiteSpace=wrap;html=1;fontFamily=Times New Roman;fontSize=19;strokeWidth=0.5;fillStyle=auto;fillColor=#DDD;fontStyle=0;" parent="77" vertex="1">
                    <mxGeometry x="60" y="50" width="40" height="40" as="geometry"/>
                </mxCell>
                <mxCell id="6" style="edgeStyle=none;html=1;endArrow=none;endFill=0;" parent="77" source="2" target="5" edge="1">
                    <mxGeometry relative="1" as="geometry"/>
                </mxCell>
                <mxCell id="7" value="u" style="ellipse;whiteSpace=wrap;html=1;fontFamily=Times New Roman;fontSize=19;strokeWidth=0.5;fillStyle=auto;fillColor=#DDD;fontStyle=0;" parent="77" vertex="1">
                    <mxGeometry x="30" y="100" width="40" height="40" as="geometry"/>
                </mxCell>
                <mxCell id="8" style="edgeStyle=none;html=1;endArrow=none;endFill=0;" parent="77" source="3" target="7" edge="1">
                    <mxGeometry relative="1" as="geometry"/>
                </mxCell>
                <mxCell id="9" value="g" style="ellipse;whiteSpace=wrap;html=1;fontFamily=Times New Roman;fontSize=19;strokeWidth=0.5;fillColor=#DDD;fontStyle=0;" parent="77" vertex="1">
                    <mxGeometry x="190" width="40" height="40" as="geometry"/>
                </mxCell>
                <mxCell id="11" value="p" style="ellipse;whiteSpace=wrap;html=1;fontFamily=Times New Roman;fontSize=19;strokeWidth=0.5;fillStyle=auto;fillColor=#808080;strokeColor=default;fontColor=#FFFFFF;fontStyle=0;" parent="77" vertex="1">
                    <mxGeometry x="160" y="50" width="40" height="40" as="geometry"/>
                </mxCell>
                <mxCell id="12" style="edgeStyle=none;html=1;endArrow=none;endFill=0;" parent="77" source="9" target="11" edge="1">
                    <mxGeometry relative="1" as="geometry"/>
                </mxCell>
                <mxCell id="13" value="s" style="ellipse;whiteSpace=wrap;html=1;fontFamily=Times New Roman;fontSize=19;strokeWidth=0.5;fillStyle=auto;fillColor=#808080;strokeColor=default;fontColor=#FFFFFF;fontStyle=0;" parent="77" vertex="1">
                    <mxGeometry x="220" y="50" width="40" height="40" as="geometry"/>
                </mxCell>
                <mxCell id="14" style="edgeStyle=none;html=1;endArrow=none;endFill=0;" parent="77" source="9" target="13" edge="1">
                    <mxGeometry relative="1" as="geometry"/>
                </mxCell>
                <mxCell id="15" value="u" style="ellipse;whiteSpace=wrap;html=1;fontFamily=Times New Roman;fontSize=19;strokeWidth=0.5;fillStyle=auto;fillColor=#DDD;fontStyle=0;" parent="77" vertex="1">
                    <mxGeometry x="190" y="100" width="40" height="40" as="geometry"/>
                </mxCell>
                <mxCell id="10" style="edgeStyle=none;html=1;endArrow=none;endFill=0;" parent="77" source="11" target="15" edge="1">
                    <mxGeometry relative="1" as="geometry"/>
                </mxCell>
                <mxCell id="45" value="" style="endArrow=classic;html=1;startSize=6;endSize=6;strokeWidth=2;" parent="77" edge="1">
                    <mxGeometry width="50" height="50" relative="1" as="geometry">
                        <mxPoint x="110" y="69.41" as="sourcePoint"/>
                        <mxPoint x="150" y="69.41" as="targetPoint"/>
                    </mxGeometry>
                </mxCell>
                <mxCell id="73" value="&lt;font style=&quot;font-size: 19px;&quot; face=&quot;Times New Roman&quot;&gt;(b) &lt;/font&gt;&lt;font face=&quot;SimSun&quot; style=&quot;font-size: 19px;&quot;&gt;情况&lt;/font&gt;&lt;font face=&quot;Times New Roman&quot;&gt;&lt;font style=&quot;font-size: 19px;&quot;&gt;2.&lt;/font&gt;&lt;font style=&quot;font-size: 19px;&quot;&gt;1, u&lt;/font&gt;&lt;/font&gt;&lt;font face=&quot;SimSun&quot; style=&quot;font-size: 19px;&quot;&gt;为&lt;/font&gt;&lt;font face=&quot;Times New Roman&quot; style=&quot;font-size: 19px;&quot;&gt;g&lt;/font&gt;&lt;font face=&quot;SimSun&quot; style=&quot;font-size: 19px;&quot;&gt;的内侧儿子&lt;/font&gt;" style="rounded=0;whiteSpace=wrap;html=1;container=1;verticalAlign=bottom;strokeColor=none;strokeWidth=1;align=left;spacingLeft=10;fillColor=none;" parent="1" vertex="1">
                    <mxGeometry x="40" y="240" width="650" height="200" as="geometry">
                        <mxRectangle x="177" y="190" width="50" height="40" as="alternateBounds"/>
                    </mxGeometry>
                </mxCell>
                <mxCell id="78" value="" style="group" parent="73" vertex="1" connectable="0">
                    <mxGeometry x="40" y="20" width="610" height="140" as="geometry"/>
                </mxCell>
                <mxCell id="16" value="g" style="ellipse;whiteSpace=wrap;html=1;fontFamily=Times New Roman;fontSize=19;fillColor=#808080;fontColor=#FFFFFF;strokeWidth=0.5;fontStyle=0;" parent="78" vertex="1">
                    <mxGeometry x="30" width="40" height="40" as="geometry"/>
                </mxCell>
                <mxCell id="18" value="p" style="ellipse;whiteSpace=wrap;html=1;fontFamily=Times New Roman;fontSize=19;strokeWidth=0.5;fillStyle=auto;fillColor=#DDD;fontStyle=0;" parent="78" vertex="1">
                    <mxGeometry y="50" width="40" height="40" as="geometry"/>
                </mxCell>
                <mxCell id="19" style="edgeStyle=none;html=1;endArrow=none;endFill=0;" parent="78" source="16" target="18" edge="1">
                    <mxGeometry relative="1" as="geometry"/>
                </mxCell>
                <mxCell id="20" value="s" style="ellipse;whiteSpace=wrap;html=1;fontFamily=Times New Roman;fontSize=19;strokeWidth=0.5;fillStyle=auto;fillColor=#808080;fontColor=#FFFFFF;fontStyle=0;" parent="78" vertex="1">
                    <mxGeometry x="60" y="50" width="40" height="40" as="geometry"/>
                </mxCell>
                <mxCell id="21" style="edgeStyle=none;html=1;endArrow=none;endFill=0;" parent="78" source="16" target="20" edge="1">
                    <mxGeometry relative="1" as="geometry"/>
                </mxCell>
                <mxCell id="22" value="u" style="ellipse;whiteSpace=wrap;html=1;fontFamily=Times New Roman;fontSize=19;strokeWidth=0.5;fillStyle=auto;fillColor=#DDD;fontStyle=0;" parent="78" vertex="1">
                    <mxGeometry x="30" y="100" width="40" height="40" as="geometry"/>
                </mxCell>
                <mxCell id="17" style="edgeStyle=none;html=1;endArrow=none;endFill=0;" parent="78" source="18" target="22" edge="1">
                    <mxGeometry relative="1" as="geometry"/>
                </mxCell>
                <mxCell id="23" value="g" style="ellipse;whiteSpace=wrap;html=1;fontFamily=Times New Roman;fontSize=19;fillColor=#808080;fontColor=#FFFFFF;strokeWidth=0.5;fontStyle=0;" parent="78" vertex="1">
                    <mxGeometry x="190" width="40" height="40" as="geometry"/>
                </mxCell>
                <mxCell id="25" value="u" style="ellipse;whiteSpace=wrap;html=1;fontFamily=Times New Roman;fontSize=19;strokeWidth=0.5;fillStyle=auto;fillColor=#DDD;fontStyle=0;" parent="78" vertex="1">
                    <mxGeometry x="160" y="50" width="40" height="40" as="geometry"/>
                </mxCell>
                <mxCell id="26" style="edgeStyle=none;html=1;endArrow=none;endFill=0;" parent="78" source="23" target="25" edge="1">
                    <mxGeometry relative="1" as="geometry"/>
                </mxCell>
                <mxCell id="27" value="s" style="ellipse;whiteSpace=wrap;html=1;fontFamily=Times New Roman;fontSize=19;strokeWidth=0.5;fillStyle=auto;fillColor=#808080;fontColor=#FFFFFF;fontStyle=0;" parent="78" vertex="1">
                    <mxGeometry x="220" y="50" width="40" height="40" as="geometry"/>
                </mxCell>
                <mxCell id="28" style="edgeStyle=none;html=1;endArrow=none;endFill=0;" parent="78" source="23" target="27" edge="1">
                    <mxGeometry relative="1" as="geometry"/>
                </mxCell>
                <mxCell id="29" value="p" style="ellipse;whiteSpace=wrap;html=1;fontFamily=Times New Roman;fontSize=19;strokeWidth=0.5;fillStyle=auto;fillColor=#DDD;fontStyle=0;" parent="78" vertex="1">
                    <mxGeometry x="130" y="100" width="40" height="40" as="geometry"/>
                </mxCell>
                <mxCell id="24" style="edgeStyle=none;html=1;endArrow=none;endFill=0;" parent="78" source="25" target="29" edge="1">
                    <mxGeometry relative="1" as="geometry"/>
                </mxCell>
                <mxCell id="30" value="g" style="ellipse;whiteSpace=wrap;html=1;fontFamily=Times New Roman;fontSize=19;fillColor=#808080;fontColor=#FFFFFF;strokeWidth=0.5;fontStyle=0;" parent="78" vertex="1">
                    <mxGeometry x="380" y="50" width="40" height="40" as="geometry"/>
                </mxCell>
                <mxCell id="32" value="u" style="ellipse;whiteSpace=wrap;html=1;fontFamily=Times New Roman;fontSize=19;strokeWidth=0.5;fillStyle=auto;fillColor=#DDD;fontStyle=0;" parent="78" vertex="1">
                    <mxGeometry x="350" width="40" height="40" as="geometry"/>
                </mxCell>
                <mxCell id="33" style="edgeStyle=none;html=1;endArrow=none;endFill=0;" parent="78" source="30" target="32" edge="1">
                    <mxGeometry relative="1" as="geometry"/>
                </mxCell>
                <mxCell id="34" value="s" style="ellipse;whiteSpace=wrap;html=1;fontFamily=Times New Roman;fontSize=19;strokeWidth=0.5;fillStyle=auto;fillColor=#808080;fontColor=#FFFFFF;fontStyle=0;" parent="78" vertex="1">
                    <mxGeometry x="410" y="100" width="40" height="40" as="geometry"/>
                </mxCell>
                <mxCell id="35" style="edgeStyle=none;html=1;endArrow=none;endFill=0;" parent="78" source="30" target="34" edge="1">
                    <mxGeometry relative="1" as="geometry"/>
                </mxCell>
                <mxCell id="36" value="p" style="ellipse;whiteSpace=wrap;html=1;fontFamily=Times New Roman;fontSize=19;strokeWidth=0.5;fillStyle=auto;fillColor=#DDD;fontStyle=0;" parent="78" vertex="1">
                    <mxGeometry x="320" y="50" width="40" height="40" as="geometry"/>
                </mxCell>
                <mxCell id="31" style="edgeStyle=none;html=1;endArrow=none;endFill=0;" parent="78" source="32" target="36" edge="1">
                    <mxGeometry relative="1" as="geometry"/>
                </mxCell>
                <mxCell id="37" value="g" style="ellipse;whiteSpace=wrap;html=1;fontFamily=Times New Roman;fontSize=19;strokeWidth=0.5;fillColor=#DDD;fontStyle=0;" parent="78" vertex="1">
                    <mxGeometry x="540" y="50" width="40" height="40" as="geometry"/>
                </mxCell>
                <mxCell id="39" value="u" style="ellipse;whiteSpace=wrap;html=1;fontFamily=Times New Roman;fontSize=19;strokeWidth=0.5;fillStyle=auto;fillColor=#808080;fontColor=#FFFFFF;fontStyle=0;" parent="78" vertex="1">
                    <mxGeometry x="510" width="40" height="40" as="geometry"/>
                </mxCell>
                <mxCell id="40" style="edgeStyle=none;html=1;endArrow=none;endFill=0;" parent="78" source="37" target="39" edge="1">
                    <mxGeometry relative="1" as="geometry"/>
                </mxCell>
                <mxCell id="41" value="s" style="ellipse;whiteSpace=wrap;html=1;fontFamily=Times New Roman;fontSize=19;strokeWidth=0.5;fillStyle=auto;fillColor=#808080;fontColor=#FFFFFF;fontStyle=0;" parent="78" vertex="1">
                    <mxGeometry x="570" y="100" width="40" height="40" as="geometry"/>
                </mxCell>
                <mxCell id="42" style="edgeStyle=none;html=1;endArrow=none;endFill=0;" parent="78" source="37" target="41" edge="1">
                    <mxGeometry relative="1" as="geometry"/>
                </mxCell>
                <mxCell id="43" value="p" style="ellipse;whiteSpace=wrap;html=1;fontFamily=Times New Roman;fontSize=19;strokeWidth=0.5;fillStyle=auto;fillColor=#DDD;fontStyle=0;" parent="78" vertex="1">
                    <mxGeometry x="480" y="50" width="40" height="40" as="geometry"/>
                </mxCell>
                <mxCell id="38" style="edgeStyle=none;html=1;endArrow=none;endFill=0;" parent="78" source="39" target="43" edge="1">
                    <mxGeometry relative="1" as="geometry"/>
                </mxCell>
                <mxCell id="67" value="" style="endArrow=classic;html=1;startSize=6;endSize=6;strokeWidth=2;" parent="78" edge="1">
                    <mxGeometry width="50" height="50" relative="1" as="geometry">
                        <mxPoint x="110" y="69.62" as="sourcePoint"/>
                        <mxPoint x="150" y="69.62" as="targetPoint"/>
                    </mxGeometry>
                </mxCell>
                <mxCell id="68" value="" style="endArrow=classic;html=1;startSize=6;endSize=6;strokeWidth=2;" parent="78" edge="1">
                    <mxGeometry width="50" height="50" relative="1" as="geometry">
                        <mxPoint x="270" y="69.62" as="sourcePoint"/>
                        <mxPoint x="310" y="69.62" as="targetPoint"/>
                    </mxGeometry>
                </mxCell>
                <mxCell id="69" value="" style="endArrow=classic;html=1;startSize=6;endSize=6;strokeWidth=2;" parent="78" edge="1">
                    <mxGeometry width="50" height="50" relative="1" as="geometry">
                        <mxPoint x="430" y="69.62" as="sourcePoint"/>
                        <mxPoint x="470" y="69.62" as="targetPoint"/>
                    </mxGeometry>
                </mxCell>
                <mxCell id="75" value="染色" style="text;html=1;align=center;verticalAlign=middle;resizable=0;points=[];autosize=1;strokeColor=none;fillColor=none;fontFamily=SimSun;fontSize=19;" parent="78" vertex="1">
                    <mxGeometry x="420" y="30" width="60" height="40" as="geometry"/>
                </mxCell>
                <mxCell id="80" value="此时情况同&lt;font face=&quot;Times New Roman&quot;&gt;2.2&lt;/font&gt;" style="text;html=1;align=center;verticalAlign=middle;resizable=0;points=[];autosize=1;strokeColor=none;fillColor=none;fontSize=19;fontFamily=SimSun;" parent="73" vertex="1">
                    <mxGeometry x="210" y="130" width="140" height="40" as="geometry"/>
                </mxCell>
                <mxCell id="74" value="&lt;font style=&quot;font-size: 19px;&quot; face=&quot;Times New Roman&quot;&gt;(c) &lt;/font&gt;&lt;font face=&quot;SimSun&quot; style=&quot;font-size: 19px;&quot;&gt;情况&lt;/font&gt;&lt;font face=&quot;Times New Roman&quot;&gt;&lt;font style=&quot;font-size: 19px;&quot;&gt;2.2&lt;/font&gt;&lt;font style=&quot;font-size: 19px;&quot;&gt;, u&lt;/font&gt;&lt;/font&gt;&lt;font face=&quot;SimSun&quot; style=&quot;font-size: 19px;&quot;&gt;为&lt;/font&gt;&lt;font face=&quot;Times New Roman&quot; style=&quot;font-size: 19px;&quot;&gt;g&lt;/font&gt;&lt;font face=&quot;SimSun&quot; style=&quot;font-size: 19px;&quot;&gt;的外侧儿子&lt;/font&gt;" style="rounded=0;whiteSpace=wrap;html=1;container=1;verticalAlign=bottom;strokeColor=none;strokeWidth=1;align=left;spacingLeft=10;fillColor=none;" parent="1" vertex="1">
                    <mxGeometry x="40" y="440" width="650" height="200" as="geometry">
                        <mxRectangle x="177" y="190" width="50" height="40" as="alternateBounds"/>
                    </mxGeometry>
                </mxCell>
                <mxCell id="79" value="" style="group" parent="74" vertex="1" connectable="0">
                    <mxGeometry x="10" y="20" width="480" height="140" as="geometry"/>
                </mxCell>
                <mxCell id="46" value="g" style="ellipse;whiteSpace=wrap;html=1;fontFamily=Times New Roman;fontSize=19;fillColor=#808080;fontColor=#FFFFFF;strokeWidth=0.5;fontStyle=0;" parent="79" vertex="1">
                    <mxGeometry x="60" width="40" height="40" as="geometry"/>
                </mxCell>
                <mxCell id="48" value="p" style="ellipse;whiteSpace=wrap;html=1;fontFamily=Times New Roman;fontSize=19;strokeWidth=0.5;fillStyle=auto;fillColor=#DDD;fontStyle=0;" parent="79" vertex="1">
                    <mxGeometry x="30" y="50" width="40" height="40" as="geometry"/>
                </mxCell>
                <mxCell id="49" style="edgeStyle=none;html=1;endArrow=none;endFill=0;" parent="79" source="46" target="48" edge="1">
                    <mxGeometry relative="1" as="geometry"/>
                </mxCell>
                <mxCell id="50" value="s" style="ellipse;whiteSpace=wrap;html=1;fontFamily=Times New Roman;fontSize=19;strokeWidth=0.5;fillStyle=auto;fillColor=#808080;fontColor=#FFFFFF;fontStyle=0;" parent="79" vertex="1">
                    <mxGeometry x="90" y="50" width="40" height="40" as="geometry"/>
                </mxCell>
                <mxCell id="51" style="edgeStyle=none;html=1;endArrow=none;endFill=0;" parent="79" source="46" target="50" edge="1">
                    <mxGeometry relative="1" as="geometry"/>
                </mxCell>
                <mxCell id="52" value="u" style="ellipse;whiteSpace=wrap;html=1;fontFamily=Times New Roman;fontSize=19;strokeWidth=0.5;fillStyle=auto;fillColor=#DDD;fontStyle=0;" parent="79" vertex="1">
                    <mxGeometry y="100" width="40" height="40" as="geometry"/>
                </mxCell>
                <mxCell id="47" style="edgeStyle=none;html=1;endArrow=none;endFill=0;" parent="79" source="48" target="52" edge="1">
                    <mxGeometry relative="1" as="geometry"/>
                </mxCell>
                <mxCell id="53" value="g" style="ellipse;whiteSpace=wrap;html=1;fontFamily=Times New Roman;fontSize=19;fillColor=#808080;fontColor=#FFFFFF;strokeWidth=0.5;fontStyle=0;" parent="79" vertex="1">
                    <mxGeometry x="250" y="50" width="40" height="40" as="geometry"/>
                </mxCell>
                <mxCell id="55" value="p" style="ellipse;whiteSpace=wrap;html=1;fontFamily=Times New Roman;fontSize=19;strokeWidth=0.5;fillStyle=auto;fillColor=#DDD;fontStyle=0;" parent="79" vertex="1">
                    <mxGeometry x="220" width="40" height="40" as="geometry"/>
                </mxCell>
                <mxCell id="56" style="edgeStyle=none;html=1;endArrow=none;endFill=0;" parent="79" source="53" target="55" edge="1">
                    <mxGeometry relative="1" as="geometry"/>
                </mxCell>
                <mxCell id="57" value="s" style="ellipse;whiteSpace=wrap;html=1;fontFamily=Times New Roman;fontSize=19;strokeWidth=0.5;fillStyle=auto;fillColor=#808080;fontColor=#FFFFFF;fontStyle=0;" parent="79" vertex="1">
                    <mxGeometry x="280" y="100" width="40" height="40" as="geometry"/>
                </mxCell>
                <mxCell id="58" style="edgeStyle=none;html=1;endArrow=none;endFill=0;" parent="79" source="53" target="57" edge="1">
                    <mxGeometry relative="1" as="geometry"/>
                </mxCell>
                <mxCell id="59" value="u" style="ellipse;whiteSpace=wrap;html=1;fontFamily=Times New Roman;fontSize=19;strokeWidth=0.5;fillStyle=auto;fillColor=#DDD;fontStyle=0;" parent="79" vertex="1">
                    <mxGeometry x="190" y="50" width="40" height="40" as="geometry"/>
                </mxCell>
                <mxCell id="54" style="edgeStyle=none;html=1;endArrow=none;endFill=0;" parent="79" source="55" target="59" edge="1">
                    <mxGeometry relative="1" as="geometry"/>
                </mxCell>
                <mxCell id="60" value="g" style="ellipse;whiteSpace=wrap;html=1;fontFamily=Times New Roman;fontSize=19;strokeWidth=0.5;fillColor=#DDD;fontStyle=0;" parent="79" vertex="1">
                    <mxGeometry x="410" y="50" width="40" height="40" as="geometry"/>
                </mxCell>
                <mxCell id="62" value="p" style="ellipse;whiteSpace=wrap;html=1;fontFamily=Times New Roman;fontSize=19;strokeWidth=0.5;fillStyle=auto;fillColor=#808080;fontColor=#FFFFFF;fontStyle=0;" parent="79" vertex="1">
                    <mxGeometry x="380" width="40" height="40" as="geometry"/>
                </mxCell>
                <mxCell id="63" style="edgeStyle=none;html=1;endArrow=none;endFill=0;" parent="79" source="60" target="62" edge="1">
                    <mxGeometry relative="1" as="geometry"/>
                </mxCell>
                <mxCell id="64" value="s" style="ellipse;whiteSpace=wrap;html=1;fontFamily=Times New Roman;fontSize=19;strokeWidth=0.5;fillStyle=auto;fillColor=#808080;fontColor=#FFFFFF;fontStyle=0;" parent="79" vertex="1">
                    <mxGeometry x="440" y="100" width="40" height="40" as="geometry"/>
                </mxCell>
                <mxCell id="65" style="edgeStyle=none;html=1;endArrow=none;endFill=0;" parent="79" source="60" target="64" edge="1">
                    <mxGeometry relative="1" as="geometry"/>
                </mxCell>
                <mxCell id="66" value="u" style="ellipse;whiteSpace=wrap;html=1;fontFamily=Times New Roman;fontSize=19;strokeWidth=0.5;fillStyle=auto;fillColor=#DDD;fontStyle=0;" parent="79" vertex="1">
                    <mxGeometry x="350" y="50" width="40" height="40" as="geometry"/>
                </mxCell>
                <mxCell id="61" style="edgeStyle=none;html=1;endArrow=none;endFill=0;" parent="79" source="62" target="66" edge="1">
                    <mxGeometry relative="1" as="geometry"/>
                </mxCell>
                <mxCell id="70" value="" style="endArrow=classic;html=1;startSize=6;endSize=6;strokeWidth=2;" parent="79" edge="1">
                    <mxGeometry width="50" height="50" relative="1" as="geometry">
                        <mxPoint x="140" y="69.75999999999988" as="sourcePoint"/>
                        <mxPoint x="180" y="69.75999999999988" as="targetPoint"/>
                    </mxGeometry>
                </mxCell>
                <mxCell id="71" value="" style="endArrow=classic;html=1;startSize=6;endSize=6;strokeWidth=2;" parent="79" edge="1">
                    <mxGeometry width="50" height="50" relative="1" as="geometry">
                        <mxPoint x="300" y="69.75999999999988" as="sourcePoint"/>
                        <mxPoint x="340" y="69.75999999999988" as="targetPoint"/>
                    </mxGeometry>
                </mxCell>
                <mxCell id="76" value="染色" style="text;html=1;align=center;verticalAlign=middle;resizable=0;points=[];autosize=1;strokeColor=none;fillColor=none;fontFamily=SimSun;fontSize=19;" parent="79" vertex="1">
                    <mxGeometry x="290" y="30" width="60" height="40" as="geometry"/>
                </mxCell>
            </root>
        </mxGraphModel>
    </diagram>
</mxfile>